<mxfile host="app.diagrams.net" modified="2024-06-20T10:33:03.248Z" agent="Mozilla/5.0 (Windows NT 10.0; Win64; x64) AppleWebKit/537.36 (KHTML, like Gecko) Chrome/126.0.0.0 Safari/537.36" version="24.5.5" etag="MncL0KSsiMnN8MkgizxS" type="google">
  <diagram name="Page-1" id="1QeB8XzkWSmfHhZM-ln-">
    <mxGraphModel>
      <root>
        <mxCell id="0" />
        <mxCell id="1" parent="0" />
      </root>
    </mxGraphModel>
  </diagram>
</mxfile>
